<svg width="34" height="32" viewBox="0 0 34 32" fill="none" xmlns="http://www.w3.org/2000/svg">
<g id="Group 1">
<path id="tennis" d="M9.00917 26.8074C9.08927 25.9361 8.79555 25.0394 8.12939 24.3732C7.46324 23.7071 6.5666 23.414 5.69596 23.4942M11.7665 24.0493C10.8959 24.1294 9.99856 23.8357 9.33241 23.1702C8.66625 22.5047 8.37323 21.6067 8.45404 20.7367M21.6969 22.3996L23.3997 20.6968M21.6969 22.3996C21.4886 22.6079 21.4886 22.9456 21.6969 23.1539L27.3867 28.8438C27.595 29.0521 27.9327 29.0521 28.141 28.8438L29.8438 27.1409C30.0521 26.9327 30.0521 26.595 29.8438 26.3867L24.154 20.6968C23.9457 20.4885 23.608 20.4885 23.3997 20.6968M21.6969 22.3996C20.4258 21.1284 16.3657 20.3488 13.4973 20.0544M23.3997 20.6968C22.1286 19.4256 21.3485 15.3659 21.0541 12.4975M21.0189 12.2508L13.2513 20.0193M10.4729 19.2301L20.2305 9.473M8.16663 17.9695L18.9706 7.16671M6.22017 16.3399L17.3389 5.22021M4.75856 14.2339L15.2343 3.75928M4.02073 11.4055L12.406 3.02073M4.03127 10.1856L13.9372 20.0916M4.80564 7.39228L17.1295 19.7178M19.3465 18.3567L6.29606 5.30735M8.37182 3.81549L20.7069 16.1508M11.1545 3.03127L21.0962 12.9732M11.7792 23.7717C11.7792 25.4553 10.4144 26.8201 8.7309 26.8201C7.04737 26.8201 5.68261 25.4553 5.68261 23.7717C5.68261 22.0882 7.04737 20.7234 8.7309 20.7234C10.4144 20.7234 11.7792 22.0882 11.7792 23.7717ZM17.4232 5.30313C14.3525 2.23229 9.37386 2.23229 6.30309 5.30313C3.23231 8.37397 3.23231 13.3527 6.30309 16.4235C10.2115 20.3327 16.28 21.4226 19.3507 18.351C22.4215 15.2802 21.3323 9.2116 17.4232 5.30313Z" stroke="#1CE300" stroke-width="0.5" stroke-linecap="round" stroke-linejoin="round"/>
<path id="banca" d="M26.2 3V10.2222M8.8 3V10.2222M29.825 4.44444V6.61111M29.825 6.61111V8.77778M29.825 6.61111H32M5.175 4.44444V6.61111M5.175 6.61111V8.77778M5.175 6.61111H3M26.2 6.61111H8.8M13.15 10.2222V21.7778M21.85 10.2222V21.7778M23.3 26.1111V29M11.7 26.1111V29M10.6517 26.1111H24.3498C26.1435 26.1111 27.041 26.1111 27.4122 25.6734C28.2532 24.6826 26.6408 23.371 26.0521 22.7109C25.3895 21.9656 24.9037 21.7778 23.9235 21.7778H11.0765C10.0963 21.7778 9.612 21.9656 8.9479 22.7109C8.3592 23.371 6.7468 24.6826 7.5878 25.6734C7.959 26.1111 8.858 26.1111 10.6517 26.1111Z" stroke="#1CE300" stroke-width="0.5" stroke-linecap="round" stroke-linejoin="round"/>
<path id="basquet" d="M25.8167 28.2868C32.376 23.5351 33.9694 14.1818 29.3762 7.39623C24.7844 0.610686 15.7429 -1.0377 9.18362 3.71548M25.8167 28.2868C19.2574 33.037 10.2145 31.3886 5.6227 24.6031C1.03091 17.8175 2.62434 8.46416 9.18362 3.71548M25.8167 28.2868L9.18362 3.71548M28.4859 6.20981C23.0199 15.0532 16.1503 20.0299 4.84991 23.3312M19.037 1.08465C19.6358 8.94413 23.9551 15.3247 31.5728 19.6084M3.42613 12.3924C10.3609 15.6622 14.6787 22.0427 15.9633 30.9147" stroke="#1CE300" stroke-width="0.5" stroke-linecap="round" stroke-linejoin="round"/>
<path id="mancuerna" d="M11.1818 16H22.8182M10.3091 9H6.23636C6.0049 9 5.78292 9.0885 5.61925 9.24603C5.45558 9.40356 5.36364 9.61722 5.36364 9.84V22.16C5.36364 22.2703 5.38621 22.3795 5.43007 22.4815C5.47393 22.5834 5.53821 22.676 5.61925 22.754C5.70029 22.832 5.7965 22.8938 5.90239 22.9361C6.00827 22.9783 6.12176 23 6.23636 23H10.3091C10.4237 23 10.5372 22.9783 10.6431 22.9361C10.749 22.8938 10.8452 22.832 10.9262 22.754C11.0072 22.676 11.0715 22.5834 11.1154 22.4815C11.1592 22.3795 11.1818 22.2703 11.1818 22.16V9.84C11.1818 9.61722 11.0899 9.40356 10.9262 9.24603C10.7625 9.0885 10.5406 9 10.3091 9ZM27.7636 9H23.6909C23.4594 9 23.2375 9.0885 23.0738 9.24603C22.9101 9.40356 22.8182 9.61722 22.8182 9.84V22.16C22.8182 22.2703 22.8408 22.3795 22.8846 22.4815C22.9285 22.5834 22.9928 22.676 23.0738 22.754C23.1548 22.832 23.251 22.8938 23.3569 22.9361C23.4628 22.9783 23.5763 23 23.6909 23H27.7636C27.8782 23 27.9917 22.9783 28.0976 22.9361C28.2035 22.8938 28.2997 22.832 28.3807 22.754C28.4618 22.676 28.5261 22.5834 28.5699 22.4815C28.6138 22.3795 28.6364 22.2703 28.6364 22.16V9.84C28.6364 9.61722 28.5444 9.40356 28.3807 9.24603C28.2171 9.0885 27.9951 9 27.7636 9ZM1 19.36V12.64C1 12.4172 1.09195 12.2036 1.25562 12.046C1.41928 11.8885 1.64127 11.8 1.87273 11.8H4.49091C4.72237 11.8 4.94435 11.8885 5.10802 12.046C5.27169 12.2036 5.36364 12.4172 5.36364 12.64V19.36C5.36364 19.5828 5.27169 19.7964 5.10802 19.954C4.94435 20.1115 4.72237 20.2 4.49091 20.2H1.87273C1.64127 20.2 1.41928 20.1115 1.25562 19.954C1.09195 19.7964 1 19.5828 1 19.36ZM33 19.36V12.64C33 12.4172 32.9081 12.2036 32.7444 12.046C32.5807 11.8885 32.3587 11.8 32.1273 11.8H29.5091C29.2776 11.8 29.0556 11.8885 28.892 12.046C28.7283 12.2036 28.6364 12.4172 28.6364 12.64V19.36C28.6364 19.5828 28.7283 19.7964 28.892 19.954C29.0556 20.1115 29.2776 20.2 29.5091 20.2H32.1273C32.3587 20.2 32.5807 20.1115 32.7444 19.954C32.9081 19.7964 33 19.5828 33 19.36Z" stroke="#1CE300" stroke-width="0.5" stroke-linecap="round" stroke-linejoin="round"/>
<path id="futbol" d="M17.5 10L23.0158 14.146M17.5 10L11.9842 14.146M17.5 10V5.5M23.0158 14.146L20.909 20.854H14.0925M23.0158 14.146L26.925 12.25M11.9842 14.146L14.0925 20.854M11.9842 14.146L8.075 12.25M17.5 5.5L12.6048 1.876M17.5 5.5L22.3952 1.876M26.925 12.25L31.9275 17.5M26.925 12.25L28.375 6.0775M14.0925 20.854L11.7 24.25M20.9104 20.854L23.3 24.25M23.3 24.25L30.0599 23.5M23.3 24.25L19.675 30.832M11.7 24.25L4.9401 23.5M11.7 24.25L15.325 30.832M8.075 12.25L3.0725 17.5M8.075 12.25L6.625 6.0775M32 16C32 24.2845 25.5084 31 17.5 31C9.49165 31 3 24.2845 3 16C3 7.7155 9.49165 1 17.5 1C25.5084 1 32 7.7155 32 16Z" stroke="#1CE300" stroke-width="0.5" stroke-linecap="round" stroke-linejoin="round"/>
</g>
</svg>
